
        <svg xmlns="http://www.w3.org/2000/svg" xmlns:xlink="http://www.w3.org/1999/xlink" version="1.1" width="3206.896551724138" 
        height="919.7982875714264" viewBox="0 0 3206.896551724138 919.7982875714264">
			<rect fill="#000000" width="3206.896551724138" height="919.7982875714264"/>
			<g transform="scale(10.344827586206897) translate(10, 10)">
				<defs id="SvgjsDefs3251"><linearGradient id="SvgjsLinearGradient3256"><stop id="SvgjsStop3257" stop-color="#ef4136" offset="0"></stop><stop id="SvgjsStop3258" stop-color="#fbb040" offset="1"></stop></linearGradient></defs><g id="SvgjsG3252" featureKey="symbolFeature-0" transform="matrix(23.109938757355046,0,0,23.109938757355046,-22.763290006585045,-23.317926905849294)" fill="url(#SvgjsLinearGradient3256)"><g xmlns="http://www.w3.org/2000/svg"><g><polygon fill="url(#SvgjsLinearGradient3256)" points="2.179,1.009 0.989,2.171 1.872,3.302 2.465,3.292 3.062,2.759 2.767,2.428 2.292,2.852     2.085,2.856 1.583,2.211 2.358,1.453 3.225,1.453 4.014,2.49 4.014,1.759 3.443,1.009   "></polygon></g><g><polygon fill="url(#SvgjsLinearGradient3256)" points="2.544,1.708 1.947,2.242 2.242,2.571 2.717,2.148 2.923,2.145 3.426,2.79 2.649,3.547     1.784,3.547 0.985,2.499 0.985,3.23 1.565,3.991 2.83,3.991 4.014,2.833 4.014,2.824 3.137,1.697   "></polygon></g></g></g><g id="SvgjsG3253" featureKey="nameFeature-0" transform="matrix(0.8351428243198392,0,0,0.8351428243198392,88.32971435136032,12.978289293978978)" fill="#ffffff"><path d="M8 30 c0 2.96 1.48 4.64 4.48 4.64 c0.84 0 1.6 -0.12 2.2 -0.4 c1.12 -0.44 1.88 -1.28 2.28 -2.44 c0.16 -0.56 0.24 -1.16 0.24 -1.8 s-0.08 -1.24 -0.24 -1.8 c-0.44 -1.24 -1.12 -1.92 -2.28 -2.48 c-0.6 -0.24 -1.36 -0.36 -2.2 -0.36 c-3 0 -4.48 1.68 -4.48 4.64 z M2 12 l6 0 l0 10 c1.36 -1.56 3.2 -2.2 5.24 -2.2 c5.84 0 9.96 4.68 9.96 10.28 c0 6.32 -4.68 10.12 -10.64 10.12 c-6.2 0 -10.56 -4.08 -10.56 -10.2 l0 -18 z M25.8 12 l6 0 l0 28 l-6 0 l0 -28 z M45.44 34.64 c2.92 0 4.6 -1.72 4.6 -4.64 s-1.68 -4.64 -4.6 -4.64 s-4.6 1.72 -4.6 4.64 s1.68 4.64 4.6 4.64 z M45.44 40.2 c-6.16 0 -10.6 -4.08 -10.6 -10.2 c0 -6.32 4.6 -10.2 10.6 -10.2 c6.2 0 10.6 4.08 10.6 10.2 c0 6.28 -4.64 10.2 -10.6 10.2 z M74.6 33.4 l0 6 c-2.04 0.68 -4.16 0.88 -6.28 0.88 c-6.2 0 -10.6 -4.12 -10.6 -10.24 c0 -6.36 4.56 -10.24 10.6 -10.24 c2.12 0 4.24 0.2 6.28 0.88 l0 6 c-1.76 -0.92 -3.96 -1.16 -5.92 -1.16 c-1.32 0 -2.92 0.28 -3.84 1.32 c-0.84 0.84 -1.12 2.04 -1.12 3.16 c0 0.64 0.08 1.24 0.28 1.76 c0.16 0.56 0.44 1.04 0.84 1.44 c0.88 1.08 2.52 1.36 3.84 1.36 c1.76 0 4.36 -0.32 5.92 -1.16 z M89.83999999999999 20 l6 0 l0 2 c0 3.04 -1.04 5.96 -3.28 8.04 l5.28 9.96 l-7.4 0 l-6.2 -11.84 l0 11.84 l-6 0 l0 -28 l6 0 l0 15.08 l0.92 0 c3.24 0 4.68 -2.16 4.68 -5.12 l0 -1.96 z M98.88 39.36 l0 -5.6 c2.64 0.8 5.96 0.96 8.68 0.96 c1.08 0 1.92 -0.04 2.52 -0.16 c0.56 -0.08 0.84 -0.28 0.84 -0.56 c0 -0.12 -0.04 -0.2 -0.12 -0.32 c-0.4 -0.4 -1.28 -0.6 -1.8 -0.72 s-1.2 -0.28 -2.04 -0.44 c-0.68 -0.12 -1.48 -0.28 -2.4 -0.48 c-3.12 -0.68 -5.52 -2.44 -5.52 -5.8 c0 -4.96 4.84 -6.44 8.92 -6.44 c2.56 0 5.12 0.36 7.64 0.88 l0 5.64 c-2.52 -0.76 -5.36 -0.96 -8 -0.96 c-1.04 0 -1.76 0.04 -2.2 0.16 s-0.68 0.32 -0.68 0.56 c0 0.36 0.36 0.6 1.04 0.72 c0.68 0.16 1.64 0.36 2.8 0.56 c1.04 0.2 2.04 0.4 3 0.64 c2.96 0.76 5.08 2.36 5.08 5.56 c0 5.36 -5.4 6.68 -9.72 6.68 c-2.72 0 -5.4 -0.36 -8.04 -0.88 z M128.92 34.64 c2.92 0 4.6 -1.72 4.6 -4.64 s-1.68 -4.64 -4.6 -4.64 s-4.6 1.72 -4.6 4.64 s1.68 4.64 4.6 4.64 z M128.92 40.2 c-6.16 0 -10.6 -4.08 -10.6 -10.2 c0 -6.32 4.6 -10.2 10.6 -10.2 c6.2 0 10.6 4.08 10.6 10.2 c0 6.28 -4.64 10.2 -10.6 10.2 z M156.44 20 l6 0 l0 10 c0 6.12 -4.24 10.2 -10.2 10.2 c-6.12 0 -10.2 -4.28 -10.2 -10.2 l0 -10 l6 0 l0 10 c0 2.68 1.36 4.64 4.2 4.64 c2.92 0 4.2 -1.92 4.2 -4.64 l0 -10 z M172.44 30 l0 10 l-6 0 l0 -9.96 c0 -6.64 4.88 -10.24 11.04 -10.24 c0.2 0 0.48 0 0.76 0.04 s0.6 0.12 0.88 0.16 l0 5.8 c-0.2 -0.04 -0.44 -0.08 -0.72 -0.12 s-0.52 -0.08 -0.72 -0.08 c-1 0 -1.8 0.12 -2.48 0.32 c-1.12 0.4 -2.12 1.16 -2.48 2.36 c-0.2 0.52 -0.28 1.12 -0.28 1.72 z M196.96 33.4 l0 6 c-2.04 0.68 -4.16 0.88 -6.28 0.88 c-6.2 0 -10.6 -4.12 -10.6 -10.24 c0 -6.36 4.56 -10.24 10.6 -10.24 c2.12 0 4.24 0.2 6.28 0.88 l0 6 c-1.76 -0.92 -3.96 -1.16 -5.92 -1.16 c-1.32 0 -2.92 0.28 -3.84 1.32 c-0.84 0.84 -1.12 2.04 -1.12 3.16 c0 0.64 0.08 1.24 0.28 1.76 c0.16 0.56 0.44 1.04 0.84 1.44 c0.88 1.08 2.52 1.36 3.84 1.36 c1.76 0 4.36 -0.32 5.92 -1.16 z M205.56 27.6 c0.6 0.2 1.28 0.36 2 0.44 c0.72 0.12 1.4 0.16 2.04 0.16 c0.8 0 2.84 -0.16 2.84 -1.32 c0 -1.24 -1.76 -1.28 -2.64 -1.28 c-1.76 0 -3.28 0.4 -4.24 2 z M216.88 33.76 l0 5.6 c-2.24 0.52 -4.48 0.88 -6.8 0.88 c-6.36 0 -11.08 -3.72 -11.08 -10.16 c0 -6.36 4.56 -10.28 10.6 -10.28 c4.12 0 8.88 1.96 8.88 6.64 c0 4.64 -5.04 6.36 -8.92 6.36 c-1.48 0 -2.96 -0.4 -4.32 -0.96 c0.8 2.24 3.2 2.6 5.28 2.6 c1.08 0 2.16 -0.04 3.24 -0.2 c1 -0.08 2.16 -0.2 3.12 -0.48 z M235.48 30 c0 -3 -1.48 -4.64 -4.52 -4.64 c-0.84 0 -1.56 0.12 -2.16 0.36 c-1.12 0.52 -1.88 1.28 -2.24 2.48 c-0.2 0.56 -0.28 1.16 -0.28 1.8 s0.08 1.24 0.28 1.8 c0.32 1.16 1.16 2 2.24 2.44 c0.6 0.28 1.32 0.4 2.16 0.4 c3.04 0 4.52 -1.64 4.52 -4.64 z M235.48 22 l0 -10 l6 0 l0 18 c0 6.36 -4.52 10.2 -10.56 10.2 c-6.16 0 -10.64 -4 -10.64 -10.12 c0 -5.64 4.16 -10.28 9.84 -10.28 c2.12 0 3.96 0.6 5.36 2.2 z"></path></g>
			</g>
		</svg>
	